<svg width="260" height="220" viewBox="0 0 260 220" fill="none" xmlns="http://www.w3.org/2000/svg">
  <path d="M59 77L88 31L102 92L59 77Z" fill="#F49A5C"/>
  <path d="M201 77L172 31L158 92L201 77Z" fill="#F49A5C"/>
  <path d="M64 117C64 68 94 45 130 45C166 45 196 68 196 117C196 169 167 203 130 203C93 203 64 169 64 117Z" fill="#F6A15E"/>
  <path d="M88 136C102 166 116 178 130 178C144 178 158 166 172 136C160 180 145 203 130 203C115 203 100 180 88 136Z" fill="#FFF8F0"/>
  <circle cx="111" cy="111" r="6" fill="#333044"/>
  <circle cx="149" cy="111" r="6" fill="#333044"/>
  <path d="M123 130H137L130 139L123 130Z" fill="#333044"/>
  <path d="M29 141C51 130 77 130 105 142V207C77 195 51 195 29 207V141Z" fill="#8F7CF6"/>
  <path d="M231 141C209 130 183 130 155 142V207C183 195 209 195 231 207V141Z" fill="#6BD6BC"/>
  <path d="M105 142C117 137 143 137 155 142V207C143 202 117 202 105 207V142Z" fill="#FFFFFF"/>
</svg>
